<?xml version="1.0" encoding="UTF-8"?><svg id="a" xmlns="http://www.w3.org/2000/svg" xmlns:xlink="http://www.w3.org/1999/xlink" viewBox="0 0 13.91 14"><defs><linearGradient id="b" x1="6.95" y1="14" x2="6.95" y2="0" gradientUnits="userSpaceOnUse"><stop offset="0" stop-color="#f80"/><stop offset="1" stop-color="#fbdd2d"/></linearGradient></defs><path d="M12.43,10.32c.92-1.08,1.47-2.45,1.47-3.93,0-3.53-3.11-6.39-6.95-6.39S0,2.86,0,6.39s3.11,6.39,6.95,6.39c.84,0,1.68-.14,2.48-.42.09-.03.2,0,.25.08.58.78,1.49,1.33,2.5,1.56.07.02.15-.03.16-.11,0-.04,0-.08-.03-.11-.8-1.03-.75-2.48.12-3.46h0ZM10.25,5.64l-1.79,1.36.65,2.15c.03.11-.03.22-.14.25-.06.02-.12,0-.17-.03l-1.85-1.28-1.85,1.28c-.09.07-.22.04-.28-.05-.04-.05-.05-.12-.03-.18l.65-2.15-1.79-1.36c-.09-.07-.11-.19-.04-.28.04-.05.1-.08.16-.08l2.25-.05.74-2.12c.04-.11.15-.16.26-.13.06.02.11.07.13.13l.74,2.12,2.25.05c.11,0,.2.09.2.2,0,.06-.03.12-.08.16h0Z" fill="url(#b)" stroke-width="0"/></svg>